<svg xmlns="http://www.w3.org/2000/svg" viewBox="15.5 15.5 224.5 224.5">
  <path d="m198,148a70,70 0 0 0 -140,0l20,0a50,50 0 0 1 100,0" fill-opacity="0.1"/>
  <circle r="45" cx="127.5" cy="127.6" fill="#fff" stroke="#fff" stroke-width="9"/>
  <path d="m228,78a112,112 0 0 0 -193,-13l45,78a50,50 0 0 1 47,-65" fill="#fff"/>
  <path d="m35,65a112,112 0 0 0 84,174l47,-80a50,50 0 0 1 -86,-16" fill="#fff"/>
  <path d="m119,239a112,112 0 0 0 109,-161l-101,0a50,50 0 0 1 39,81" fill="#fff"/>
  <path d="m35,65l45,78a50,50 0 0 1 2,-34l-45,-47" opacity="0.075"/>
  <path d="m119,239l47,-80a50,50 0 0 1 -29,17l-20,63" opacity="0.05"/>
  <path d="m228,78l-101,0a50,50 0 0 1 39,19l64,-16" opacity="0.05"/>
</svg>