<?xml version="1.0" encoding="utf-8"?>
<!-- Generator: Adobe Illustrator 15.0.0, SVG Export Plug-In . SVG Version: 6.00 Build 0)  -->
<!DOCTYPE svg PUBLIC "-//W3C//DTD SVG 1.0//EN" "http://www.w3.org/TR/2001/REC-SVG-20010904/DTD/svg10.dtd">
<svg version="1.0" id="C_copy_2" xmlns="http://www.w3.org/2000/svg" xmlns:xlink="http://www.w3.org/1999/xlink" x="0px" y="0px"
	 width="351.833px" height="342.284px" viewBox="0 0 351.833 342.284" enable-background="new 0 0 351.833 342.284"
	 xml:space="preserve">
<g display="none">
	<path display="inline" fill="#666666" d="M-145.375,320.356c-0.293,0.668-0.691,1.255-1.192,1.757
		c-0.502,0.502-1.089,0.898-1.767,1.192c-0.673,0.293-1.39,0.438-2.144,0.438c-0.765,0-1.484-0.146-2.152-0.438
		c-0.671-0.294-1.255-0.69-1.758-1.192s-0.899-1.089-1.192-1.757c-0.293-0.671-0.44-1.388-0.44-2.153c0-0.754,0.147-1.47,0.44-2.145
		c0.293-0.678,0.689-1.264,1.192-1.767c0.503-0.5,1.087-0.899,1.758-1.191c0.668-0.294,1.388-0.439,2.152-0.439
		c0.754,0,1.471,0.146,2.144,0.439c0.678,0.292,1.265,0.691,1.767,1.191c0.501,0.503,0.899,1.089,1.192,1.767
		c0.293,0.675,0.438,1.391,0.438,2.145C-144.937,318.969-145.082,319.686-145.375,320.356z M-146.767,316.571
		c-0.21-0.512-0.498-0.958-0.867-1.336c-0.363-0.378-0.791-0.678-1.28-0.899c-0.484-0.227-1.007-0.338-1.563-0.338
		s-1.079,0.111-1.563,0.338c-0.486,0.222-0.913,0.521-1.283,0.899c-0.368,0.378-0.655,0.824-0.863,1.336
		c-0.209,0.512-0.314,1.054-0.314,1.632c0,0.576,0.105,1.121,0.314,1.632c0.208,0.512,0.495,0.957,0.863,1.334
		c0.37,0.378,0.797,0.68,1.283,0.902c0.484,0.224,1.007,0.335,1.563,0.335s1.079-0.111,1.563-0.335
		c0.489-0.223,0.917-0.524,1.28-0.902c0.369-0.377,0.657-0.822,0.867-1.334c0.209-0.511,0.312-1.056,0.312-1.632
		C-146.454,317.625-146.558,317.083-146.767,316.571z M-149.453,321.012c-0.278,0.097-0.594,0.146-0.941,0.146
		c-0.406,0-0.777-0.067-1.11-0.2c-0.33-0.133-0.619-0.326-0.858-0.575c-0.236-0.246-0.421-0.545-0.551-0.892
		c-0.129-0.348-0.194-0.741-0.194-1.179c0-0.446,0.065-0.859,0.194-1.235c0.13-0.378,0.311-0.705,0.544-0.978
		c0.234-0.272,0.52-0.486,0.859-0.642c0.337-0.153,0.715-0.23,1.132-0.23c0.308,0,0.606,0.048,0.894,0.143
		c0.288,0.095,0.547,0.235,0.776,0.423l-0.686,0.982c-0.2-0.138-0.374-0.235-0.522-0.291c-0.15-0.055-0.299-0.08-0.445-0.08
		c-0.746,0-1.118,0.567-1.118,1.704c0,0.688,0.091,1.178,0.274,1.471c0.184,0.294,0.484,0.441,0.902,0.441
		c0.387,0,0.722-0.141,0.999-0.418l0.73,0.921C-148.884,320.749-149.177,320.912-149.453,321.012z"/>
</g>
<path fill="#FFFFFF" d="M335.163,223.237c9.7-19.3,24.372-62.701,11.824-98.183c0.09,0.345,0.171,0.689,0.257,1.035
	c-0.139-0.418-0.223-0.646-0.223-0.646s-2.356,7.101-5.656,18.077c-0.22-1.465-0.456-2.924-0.714-4.377
	c0.924-13.33,0.543-27.664-2.15-41.285c-4.26-21.551-20.896-40.259-29.701-46.292c0.438,0.329,0.894,0.712,1.357,1.131
	c-1.003-0.781-1.601-1.178-1.601-1.178s0.362,1.967,0.995,5.44c-9.549-15.016-24.09-22.077-24.09-22.077s0.446,2.504,1.167,7.764
	C256.832,16.124,217.586,0,174.57,0C130.8,0,90.924,16.688,60.942,44.047c1.652,1.989,3.364,4.283,5.144,6.953
	c0,0,11.401-2.042,25.297-0.715C115.568,33.204,144.363,24,174.57,24c38.641,0,74.971,15.061,102.297,42.406
	c1.429,1.43,2.815,2.89,4.177,4.367c-8.202-6.186-18.131-11.311-25.479-11.876c15.045,11.187,37.419,39.154,35.104,88.338
	c-3.857-8.101-8.486-14.466-13.502-18.901c5.399,49.378,0.675,59.982-2.604,73.101c-0.723-6.028-2.893-10.56-4.147-13.309
	c0,0-0.579,15.43-10.607,37.418c-7.594,16.648-15.431,21.794-18.901,21.215c-3.068-0.51-0.964-3.472-1.545-6.362
	c0,0-5.205,2.505-10.412,7.906c-4.927,5.11-9.361,10.762-11.671,9.162c1.736-1.446,2.99-3.858,4.339-6.075
	c-1.928,1.351-6.846,5.015-17.84,6.653c-4.491,0.669-23.628,4.146-49.087-8.583c3.708-0.424,9.257-1.736,13.501,0.771
	c-4.244-4.628-14.467-3.662-21.795-5.978c-6.384-2.016-14.729-10.989-19.518-15.513c19.582,4.797,40.383,1.334,52.427-6.892
	c12.147-8.31,19.346-14.383,25.797-12.944c6.452,1.441,10.748-5.033,5.732-10.787c-5.015-5.758-17.199-13.669-33.682-9.353
	c-11.624,3.041-26.03,15.901-48.014,2.888c-18.763-11.113-18.637-20.147-18.637-25.896c0-3.946,2.398-9.285,6.901-11.8
	c2.436,0.871,3.94,1.662,3.94,1.662s-1.118-1.729-1.836-2.569c0.169-0.053,0.34-0.101,0.513-0.146
	c1.977,0.67,6.451,2.32,8.715,3.459c3.064,1.539,4.104,3.112,4.104,3.112s0.716-0.445-0.034-2.023
	c-0.31-0.652-1.408-2.551-4.444-4.401c0.062-0.002,0.117-0.006,0.163-0.011c1.586,0.631,3.274,1.437,5.142,2.489
	c0.578-2.7,1.747-5.509,0.965-10.415c-0.551-3.453-0.482-4.339-1.352-5.595c-0.74-1.07,0.193-1.542,1.352-0.578
	c-0.277-0.855-0.664-1.705-1.124-2.558c0.005-0.017,0.011-0.025,0.015-0.046c0.059-0.263,0.216-0.566,0.457-0.902
	c3.586-4.971,25.971-16.732,27.751-18.049c2.204-1.629,4.438-4.018,6.095-6.781c2.275-1.413,3.895-7.276,4.321-11.687
	c0.171-1.769-3.665-3.856-5.69-4.242c-1.157-0.29-5.232-0.989-8.197-0.482c0.124,0.056,0.281,0.132,0.452,0.218
	c-4.146-0.264-9.742-0.375-17.305-0.314c-7.401,0.059-12.217-4.254-15.122-8.361c-0.58-0.881-1.1-1.715-1.557-2.467
	c-0.645-1.148-1.129-2.189-1.472-3.008c3.235-11.729,9.766-21.891,19.862-30.14c0.619-0.506-2.407,0.351-1.832-0.193
	c0.68-0.645,4.963-2.684,5.764-3.132c1.035-0.584-4.654-2.124-9.525-1.112c-4.869,1.014-5.834,1.592-8.342,2.894
	c1.012-1.062,4.326-2.736,3.521-2.556c-5.314,1.189-11.562,4.677-16.878,8.438c-0.047-0.482,0-0.867,0.098-1.639
	c-2.514,1.307-8.584,5.979-10.127,9.547c0-0.771,0-1.156-0.096-2.025c-1.727,1.586-3.381,3.452-4.889,5.529
	c-0.021,0.025-0.043,0.053-0.063,0.078c-15.809-3.928-29.232-2.974-40.448,0.621c-3.739-3.023-9.441-8.432-13.766-15.411
	c-0.397-0.641-0.447,1.435-0.819,0.769c-2.427-4.357-4.513-11.5-5.043-17.158c-0.054-0.567-0.097-1.125-0.116-1.659
	c0,0-2.082,1.219-4.309,4.933c-0.995,1.658-2.02,3.811-2.9,6.58c-0.506,1.591-0.867,2.531-1.23,3.399
	c-0.113,0.274,0.225-2.885,0.098-2.628c-0.553,1.117-2.098,2.893-2.604,4.918c-0.384,1.532-1.004,2.446-1.235,4.372
	c-0.018,0.034-0.035,0.067-0.053,0.101c-0.038-0.461-0.071-2.229-0.201-1.884c-1.289,3.404-2.489,7.307-3.443,11.721
	c-0.833,3.242-1.473,6.931-1.84,11.118c-0.422,4.814-0.491,10.27-0.046,16.496c-0.012,0.966-0.037,1.864-0.069,2.732
	c-4.252,5.863-6.851,10.924-7.929,13.408C9.604,118.495,4.289,134.057,0,158.23c0,0,2.826-8.964,8.497-19.181
	c-0.023,0.13-0.042,0.263-0.065,0.394c-4.143,13.02-7.336,33.062-5.413,62.883c0.077-0.999,0.972-8.653,3.237-18.981
	c1.096,20.157,6.856,44.707,22.549,71.581c11.525,19.742,25.083,34.542,40.247,45.56c2.794,2.245,5.658,4.405,8.594,6.471
	c18.76,13.681,47.929,30.544,72.802,34.121c-8.681-2.509-14.08-7.522-14.08-7.522s29.552,9.494,51.112,8.68
	c-6.75-1.157-8.103-4.437-8.103-4.437s61.416,3.472,93.325-21.729c7.141-5.383,11.845-11.615,13.242-17.303
	c9.412-5.006,19.567-11.847,29.99-22.111c17.354-17.088,19.24-30.086,21.12-42.238c-0.069,0.383-0.152,0.758-0.236,1.134
	C337.608,230.673,337.081,226.385,335.163,223.237z"/>
</svg>
