<?xml version="1.0" encoding="utf-8"?>
<svg version="1.0" xmlns="http://www.w3.org/2000/svg" x="0px" y="0px"
	 width="268.875px" height="262.007px" viewBox="0 0 268.875 262.007">
<g>
	<g>
		<path fill="#FFFFFF" d="M97.024,152.161h106.232h64.823c0.508-5,0.795-9.294,0.795-13.933c0-51.385-32.049-95.388-77.246-112.906
			c-28.215,12.585-62.024,36.58-94.112,68.668c-28.302,28.302-50.348,57.912-63.793,83.871
			c16.465,47.223,61.38,81.087,114.216,81.087c53.076,0,98.134-33.787,114.413-81.787h-65.447
			c-8.978,17-26.553,27.916-46.765,27.916c-20.214,0-37.731-11.289-46.712-27.904c-4.052-7.502-6.301-16.086-6.301-25.211v0.199
			H97.024z M147.939,72.178c27.136,0,49.306,20.983,50.829,47.983H97.108C98.631,93.161,120.802,72.178,147.939,72.178z"/>
		<path fill="#FFFFFF" d="M154.685,17.262c-2.233-0.123-4.481-0.19-6.746-0.19c-65.997,0-119.64,52.864-120.906,118.558
			c11.748-20.877,27.345-42.131,46.854-61.641C99.438,48.438,127.945,29.558,154.685,17.262z"/>
		<path fill="#FFFFFF" d="M249.781,22.457c9.521,9.522,9.119,27.415,0.759,49.583c1.224,1.896,2.398,3.824,3.518,5.789
			c11.229-29.285,11.103-54.192-3.663-68.957c-14.125-14.125-52.622-11.421-95.709,8.391c12.965,0.713,25.384,3.468,36.943,7.949
			C217.739,13.564,239.059,11.734,249.781,22.457z"/>
		<path fill="#FFFFFF" d="M27.033,135.63C-1.399,186.154-7.256,234.472,8.766,250.495c17.254,17.254,48.578,14.289,84.533-3.396
			c-2.648-1.334-5.24-2.764-7.777-4.277c-26.71,12.176-48.584,14.281-59.484,3.379c-12.09-12.09-8.223-37.652,7.686-68.366
			c-4.35-12.473-6.721-25.872-6.721-39.827C27.002,137.212,27.017,136.421,27.033,135.63z"/>
	</g>
</g>
</svg>
